# xmcd
#
# Track frame offsets: 
#        150
#        22536
#        41315
#        68277
#        83167
#        106973
#        126760
#        144050
#        163875
#        187713
#        206878
#
# Disc length: 3115 seconds
#
# Revision: 2
# Processed by: cddbd v1.5.2PL0 Copyright (c) Steve Scherf et al.
# Submitted via: ExactAudioCopy v1.0b3
#
DISCID=7b0c290b
DTITLE=Lloyd Glenn and Clarence "Gatemouth" Brown - Blues Reference (Hea
DTITLE=t Wave)
DYEAR=1977
DGENRE=Blues
TTITLE0=Heat Wave
TTITLE1=First Take And Blue
TTITLE2=It's Mean
TTITLE3=One Level Below Plant Live
TTITLE4=Someday
TTITLE5=Lover Call
TTITLE6=Slow Train No1
TTITLE7=Slow Train Through Paris
TTITLE8=Long Way Home
TTITLE9=First Take And Blue
TTITLE10=It's Mean
EXTD=
EXTT0=
EXTT1=
EXTT2=
EXTT3=
EXTT4=
EXTT5=
EXTT6=
EXTT7=
EXTT8=
EXTT9=
EXTT10=
PLAYORDER=
